<svg xmlns="http://www.w3.org/2000/svg" xmlns:svg="http://www.w3.org/2000/svg" xmlns:xlink="http://www.w3.org/1999/xlink" id="svg2" width="115.808" height="116" version="1.0" viewBox="-9.4 -7 130.863 131.08"><metadata id="metadata7"/><defs id="defs5"><linearGradient id="linearGradient5199"><stop style="stop-color:#aaff61;stop-opacity:1" id="stop1268" offset="0"/><stop style="stop-color:#0e530d;stop-opacity:1" id="stop1270" offset="1"/></linearGradient><linearGradient id="linearGradient3848"><stop id="stop3850" offset="0" style="stop-color:#980000;stop-opacity:1"/><stop id="stop3852" offset="1" style="stop-color:red;stop-opacity:1"/></linearGradient><linearGradient id="linearGradient3840"><stop style="stop-color:#980000;stop-opacity:1" id="stop3842" offset="0"/><stop style="stop-color:red;stop-opacity:1" id="stop3844" offset="1"/></linearGradient><linearGradient id="linearGradient3832"><stop style="stop-color:#980000;stop-opacity:1" id="stop3834" offset="0"/><stop style="stop-color:red;stop-opacity:1" id="stop3836" offset="1"/></linearGradient><linearGradient id="linearGradient3824"><stop style="stop-color:#980000;stop-opacity:1" id="stop3826" offset="0"/><stop style="stop-color:red;stop-opacity:1" id="stop3828" offset="1"/></linearGradient><linearGradient id="linearGradient3802"><stop style="stop-color:#000;stop-opacity:1" id="stop3804" offset="0"/><stop style="stop-color:#fff;stop-opacity:1" id="stop3806" offset="1"/></linearGradient><linearGradient id="linearGradient3786"><stop style="stop-color:#000;stop-opacity:1" id="stop3788" offset="0"/><stop style="stop-color:#fff;stop-opacity:1" id="stop3790" offset="1"/></linearGradient><linearGradient id="linearGradient2552" x1="64.585" x2="64.585" y1="43.5" y2="58.5" gradientTransform="translate(6.730946,3.1870012)" gradientUnits="userSpaceOnUse" xlink:href="#linearGradient3786"/><linearGradient id="linearGradient2555" x1="64.585" x2="64.585" y1="43.5" y2="58.5" gradientTransform="matrix(-1,0,0,1,173.83071,-15.312999)" gradientUnits="userSpaceOnUse" xlink:href="#linearGradient3786"/><linearGradient id="linearGradient2558" x1="27.35" x2="65.281" y1="101.339" y2="82.839" gradientTransform="matrix(-1,0,0,1,136.5961,2.8475351)" gradientUnits="userSpaceOnUse" xlink:href="#linearGradient3832"/><linearGradient id="linearGradient2561" x1="20.174" x2="46.828" y1="97.839" y2="84.839" gradientTransform="translate(75.745265,-0.15246492)" gradientUnits="userSpaceOnUse" xlink:href="#linearGradient3824"/><linearGradient id="linearGradient2564" x1="48.182" x2="42.031" y1="79.5" y2="82.5" gradientTransform="matrix(-1,0,0,1,135.90009,3.1870012)" gradientUnits="userSpaceOnUse" xlink:href="#linearGradient3840"/><linearGradient id="linearGradient2567" x1="46.132" x2="33.83" y1="57.5" y2="37.5" gradientTransform="matrix(-1,0,0,1,135.90009,3.1870012)" gradientUnits="userSpaceOnUse" xlink:href="#linearGradient3802"/><linearGradient id="linearGradient2570" x1="64.585" x2="31.78" y1="35.5" y2="51.5" gradientTransform="matrix(-1,0,0,1,135.90009,3.1870012)" gradientUnits="userSpaceOnUse" xlink:href="#linearGradient3848"/><linearGradient id="linearGradient2573" x1="46.132" x2="33.83" y1="57.5" y2="37.5" gradientTransform="translate(44.661565,-15.312999)" gradientUnits="userSpaceOnUse" xlink:href="#linearGradient3802"/><linearGradient id="linearGradient2576" x1="64.585" x2="64.585" y1="43.5" y2="58.5" gradientTransform="translate(-31.199675,-15.312999)" gradientUnits="userSpaceOnUse" xlink:href="#linearGradient3786"/><linearGradient id="linearGradient2579" x1="27.35" x2="65.281" y1="101.339" y2="82.839" gradientTransform="translate(6.034937,2.8475351)" gradientUnits="userSpaceOnUse" xlink:href="#linearGradient3832"/><linearGradient id="linearGradient2582" x1="20.174" x2="46.828" y1="97.839" y2="84.839" gradientTransform="matrix(-1,0,0,1,66.885767,-0.15246492)" gradientUnits="userSpaceOnUse" xlink:href="#linearGradient3824"/><linearGradient id="linearGradient2585" x1="48.182" x2="42.031" y1="79.5" y2="82.5" gradientTransform="translate(6.730946,3.1870012)" gradientUnits="userSpaceOnUse" xlink:href="#linearGradient3840"/><linearGradient id="linearGradient2588" x1="46.132" x2="33.83" y1="57.5" y2="37.5" gradientTransform="translate(6.730946,3.1870012)" gradientUnits="userSpaceOnUse" xlink:href="#linearGradient3802"/><linearGradient id="linearGradient2591" x1="64.585" x2="31.78" y1="35.5" y2="51.5" gradientTransform="translate(6.730946,3.1870012)" gradientUnits="userSpaceOnUse" xlink:href="#linearGradient3848"/><linearGradient id="linearGradient2594" x1="46.132" x2="33.83" y1="57.5" y2="37.5" gradientTransform="matrix(-1,0,0,1,97.969467,-15.312999)" gradientUnits="userSpaceOnUse" xlink:href="#linearGradient3802"/><linearGradient id="linearGradient2597" x1="64.585" x2="64.585" y1="43.5" y2="58.5" gradientTransform="translate(6.7309459,-33.812999)" gradientUnits="userSpaceOnUse" xlink:href="#linearGradient3786"/><linearGradient id="linearGradient1266" x1="97.388" x2="108.875" y1="83.594" y2="114" gradientTransform="translate(4.2812499,3.2182512)" gradientUnits="userSpaceOnUse" spreadMethod="pad" xlink:href="#linearGradient5199"/><linearGradient id="linearGradient1327" x1="97.388" x2="108.875" y1="83.594" y2="114" gradientTransform="translate(-4.5000001,-1.375)" gradientUnits="userSpaceOnUse" spreadMethod="pad" xlink:href="#linearGradient5199"/><linearGradient id="linearGradient1348" x1="97.388" x2="108.875" y1="83.594" y2="114" gradientTransform="translate(3.2485389,5.0941262)" gradientUnits="userSpaceOnUse" spreadMethod="pad" xlink:href="#linearGradient5199"/><linearGradient id="linearGradient1528" x1="97.388" x2="108.875" y1="83.594" y2="114" gradientTransform="translate(4.2812499,3.2182512)" gradientUnits="userSpaceOnUse" spreadMethod="pad" xlink:href="#linearGradient5199"/><linearGradient id="linearGradient893" x1="97.388" x2="108.875" y1="83.594" y2="114" gradientTransform="translate(4.2812499,3.2182512)" gradientUnits="userSpaceOnUse" spreadMethod="pad" xlink:href="#linearGradient5199"/></defs><g id="layer1" transform="translate(-8.78125,-4.5932515)"><path style="fill:#000;fill-opacity:1;fill-rule:evenodd;stroke:#000;stroke-width:1;stroke-linecap:butt;stroke-linejoin:round;stroke-miterlimit:4;stroke-dasharray:none;stroke-opacity:1" id="path4621" d="m 62.486328,5.09375 a 2.0002,2.0002 0 0 0 -0.832031,0.203125 l -13.3125,6.5 a 2.0002,2.0002 0 0 0 -0.902344,0.882813 L 38.478516,30.130859 25.46875,23.794922 a 2.0002,2.0002 0 0 0 -1.751953,0.002 l -13.3125,6.5 A 2.0002,2.0002 0 0 0 9.28125,32.09375 v 61 a 2.0002,2.0002 0 0 0 1.123047,1.796875 l 13.3125,6.499995 a 2.0002,2.0002 0 0 0 1.751953,0.002 L 38.8125,94.892578 a 2.0002,2.0002 0 0 0 1.125,-1.798828 v -9.886719 a 2.0002,2.0002 0 0 0 1.269531,-0.152343 l 6.011719,-2.878907 v 31.417969 a 2.0002,2.0002 0 0 0 1.123047,1.79687 l 13.3125,6.5 a 2.0002,2.0002 0 0 0 1.751953,0.002 l 13.34375,-6.5 a 2.0002,2.0002 0 0 0 1.125,-1.79883 V 80.175781 l 6.011719,2.878907 A 2.0002,2.0002 0 0 0 85.125,83.212891 v 9.880859 a 2.0002,2.0002 0 0 0 1.125,1.798828 l 13.34375,6.500002 a 2.0002,2.0002 0 0 0 1.75195,-0.002 l 13.3125,-6.499995 a 2.0002,2.0002 0 0 0 1.12305,-1.796875 v -61 a 2.0002,2.0002 0 0 0 -1.12305,-1.796875 l -13.3125,-6.5 a 2.0002,2.0002 0 0 0 -1.75195,-0.002 L 86.587891,30.130859 77.65625,12.681641 A 2.0002,2.0002 0 0 0 76.75,11.794922 L 63.40625,5.2949219 A 2.0002,2.0002 0 0 0 62.486328,5.09375 Z"/><path id="path3794" d="m 62.534267,20.09375 -13.326975,-6.5 13.326975,-6.5 13.326975,6.5 z" style="fill:url(#linearGradient2597);fill-opacity:1;fill-rule:evenodd;stroke:#fff;stroke-width:1.5;stroke-linecap:butt;stroke-linejoin:round;stroke-miterlimit:4;stroke-dasharray:none;stroke-opacity:1"/><path id="path3810" d="m 62.534267,20.09375 -13.326975,-6.5 -12.301823,24 13.326975,6.5 z" style="fill:url(#linearGradient2594);fill-opacity:1;fill-rule:evenodd;stroke:#fff;stroke-width:1.5;stroke-linecap:butt;stroke-linejoin:round;stroke-miterlimit:4;stroke-dasharray:none;stroke-opacity:1"/><path style="fill:url(#linearGradient2591);fill-opacity:1;fill-rule:evenodd;stroke:#fff;stroke-width:1.5;stroke-linecap:butt;stroke-linejoin:round;stroke-miterlimit:4;stroke-dasharray:none;stroke-opacity:1" id="path3734" d="m 62.534267,44.09375 v -24 l -12.301823,24 -12.301823,-12 10.251519,20 14.352127,-8 v 0"/><path style="fill:url(#linearGradient2588);fill-opacity:1;fill-rule:evenodd;stroke:#fff;stroke-width:1;stroke-linecap:butt;stroke-linejoin:round;stroke-miterlimit:4;stroke-dasharray:none;stroke-opacity:1" id="path3720" d="m 24.603646,38.59375 13.326975,-6.5 12.301823,24 -13.326975,6.5 z"/><path style="fill:url(#linearGradient2585);fill-opacity:1;fill-rule:evenodd;stroke:#fff;stroke-width:1.5;stroke-linecap:butt;stroke-linejoin:round;stroke-miterlimit:4;stroke-dasharray:none;stroke-opacity:1" id="path3736" d="M 40.332696,81.26475 49.207292,77 v -4.40625 z"/><path id="path3742" d="M 37.930621,80.093746 V 93.09375 l -13.326975,6.5 V 60.593746" style="fill:url(#linearGradient2582);fill-opacity:1;fill-rule:evenodd;stroke:#fff;stroke-width:1.5;stroke-linecap:butt;stroke-linejoin:round;stroke-miterlimit:4;stroke-dasharray:none;stroke-opacity:1"/><path style="opacity:.96;fill:url(#linearGradient2579);fill-opacity:1;fill-rule:evenodd;stroke:#fff;stroke-width:1.5;stroke-linecap:butt;stroke-linejoin:round;stroke-miterlimit:4;stroke-dasharray:none;stroke-opacity:1" id="path2384" d="m 49.207292,111.59375 13.326975,6.5 v -61 l -13.326975,-6.5 -12.301823,12 -12.301823,-24 -13.326975,-6.5 v 61 l 13.326975,6.5 v -39 l 8.897224,17.339466 6.831623,3.332005 8.874799,-8.671471 z"/><path style="fill:url(#linearGradient2576);fill-opacity:1;fill-rule:evenodd;stroke:#fff;stroke-width:1.5;stroke-linecap:butt;stroke-linejoin:round;stroke-miterlimit:4;stroke-dasharray:none;stroke-opacity:1" id="path3796" d="m 24.603646,38.59375 -13.326975,-6.5 13.326975,-6.5 13.326975,6.5 z"/><path style="fill:url(#linearGradient2573);fill-opacity:1;fill-rule:evenodd;stroke:#fff;stroke-width:1.5;stroke-linecap:butt;stroke-linejoin:round;stroke-miterlimit:4;stroke-dasharray:none;stroke-opacity:1" id="path3889" d="m 62.534265,20.09375 13.326975,-6.5 12.301823,24 -13.326975,6.5 z"/><path id="path3891" d="m 62.534265,44.09375 v -24 l 12.301823,24 12.301823,-12 -10.251519,20 -14.352127,-8 v 0" style="fill:url(#linearGradient2570);fill-opacity:1;fill-rule:evenodd;stroke:#fff;stroke-width:1.5;stroke-linecap:butt;stroke-linejoin:round;stroke-miterlimit:4;stroke-dasharray:none;stroke-opacity:1"/><path id="path3893" d="m 100.46489,38.59375 -13.326979,-6.5 -12.301823,24 13.326975,6.5 z" style="fill:url(#linearGradient2567);fill-opacity:1;fill-rule:evenodd;stroke:#fff;stroke-width:1;stroke-linecap:butt;stroke-linejoin:round;stroke-miterlimit:4;stroke-dasharray:none;stroke-opacity:1"/><path id="path3895" d="M 84.735836,81.26475 75.86124,77 v -4.40625 z" style="fill:url(#linearGradient2564);fill-opacity:1;fill-rule:evenodd;stroke:#fff;stroke-width:1.5;stroke-linecap:butt;stroke-linejoin:round;stroke-miterlimit:4;stroke-dasharray:none;stroke-opacity:1"/><path style="fill:url(#linearGradient2561);fill-opacity:1;fill-rule:evenodd;stroke:#fff;stroke-width:1.5;stroke-linecap:butt;stroke-linejoin:round;stroke-miterlimit:4;stroke-dasharray:none;stroke-opacity:1" id="path3897" d="M 87.137911,80.093746 V 93.09375 l 13.326979,6.5 V 60.593746"/><path id="path3899" d="m 75.86124,111.59375 -13.326975,6.5 v -61 l 13.326975,-6.5 12.301823,12 12.301827,-24 13.32697,-6.5 v 61 l -13.32697,6.5 v -39 L 91.567662,77.933216 84.736039,81.265221 75.86124,72.59375 Z" style="fill:url(#linearGradient2558);fill-opacity:1;fill-rule:evenodd;stroke:#fff;stroke-width:1.5;stroke-linecap:butt;stroke-linejoin:round;stroke-miterlimit:4;stroke-dasharray:none;stroke-opacity:1"/><path id="path3901" d="m 100.46489,38.59375 13.32697,-6.5 -13.32697,-6.5 -13.326979,6.5 z" style="fill:url(#linearGradient2555);fill-opacity:1;fill-rule:evenodd;stroke:#fff;stroke-width:1.5;stroke-linecap:butt;stroke-linejoin:round;stroke-miterlimit:4;stroke-dasharray:none;stroke-opacity:1"/><path style="fill:url(#linearGradient2552);fill-opacity:1;fill-rule:evenodd;stroke:#fff;stroke-width:1.5;stroke-linecap:butt;stroke-linejoin:round;stroke-miterlimit:4;stroke-dasharray:none;stroke-opacity:1" id="path3714" d="m 62.534267,57.09375 -13.326975,-6.5 13.326975,-6.5 13.326975,6.5 z"/></g><g id="layer2" transform="translate(-8.78125,-4.5932515)" style="display:inline"><g id="text435" aria-label="#" style="font-style:normal;font-variant:normal;font-weight:400;font-stretch:normal;font-size:96px;line-height:1.25;font-family:'Informal Roman';-inkscape-font-specification:'Informal Roman, ';opacity:1;fill:url(#linearGradient1266);fill-opacity:1;fill-rule:nonzero;stroke:#000;stroke-width:2;stroke-miterlimit:4;stroke-dasharray:none;stroke-opacity:1;paint-order:stroke fill markers"><path style="font-style:normal;font-variant:normal;font-weight:400;font-stretch:normal;font-size:96px;font-family:'Informal Roman';-inkscape-font-specification:'Informal Roman, ';fill:url(#linearGradient1348);fill-opacity:1;fill-rule:nonzero;stroke:#000;stroke-width:3.3;stroke-linecap:round;stroke-linejoin:round;stroke-miterlimit:4;stroke-dasharray:none;stroke-opacity:1;paint-order:normal" id="path1350" d="m 120.68945,64.203125 c -0.53125,0 -1.0625,0.203125 -1.59375,0.609375 -0.8125,0.59375 -2.15625,2.515625 -4.03125,5.765625 -3.5625,6.25 -5.65625,9.953125 -6.28125,11.109375 -2.03125,-0.03125 -4.79687,-0.03125 -8.29687,0 h -2.296877 -1.453125 c 2,-4.15625 3.718742,-7.5 5.156252,-10.03125 1.78124,-3.15625 2.57812,-5.125 2.39062,-5.90625 -0.125,-0.625 -0.54688,-0.9375 -1.26562,-0.9375 -0.46876,0 -0.92188,0.1875 -1.35938,0.5625 -0.78125,0.65625 -1.984372,2.59375 -3.609372,5.8125 -0.34375,0.75 -1.59375,3.15625 -3.75,7.21875 -0.40625,0.78125 -0.84375,1.65625 -1.3125,2.625 l -0.375,0.65625 c -4.71875,-0.03125 -7.34375,-0.171875 -7.875,-0.421875 -1.53125,-0.53125 -2.546875,-0.796875 -3.046875,-0.796875 -0.59375,0 -1.09375,0.203125 -1.5,0.609375 -0.625,0.65625 -0.96875,1.46875 -1.03125,2.4375 -0.09375,1.875 1.828125,2.8125 5.765625,2.8125 1.34375,0 2.65625,-0.03125 3.9375,-0.09375 0.5,0 0.953125,-0.01564 1.359375,-0.04687 -1.8125,3.46875 -3.5,6.828125 -5.0625,10.078125 h -0.75 -1.171875 -1.875 c -2.5625,-0.03125 -4.296875,-0.0625 -5.203125,-0.09375 h -1.125 c -0.75,0 -1.296875,0.140658 -1.640625,0.421875 -0.78125,0.71875 -1.171875,1.515612 -1.171875,2.390625 0,1.281245 1.96875,1.921875 5.90625,1.921875 0.625,0 1.90625,-0.0314 3.84375,-0.0937 h 1.125 l -0.375,0.84375 c -3.28125,7.28125 -4.921875,11.9375 -4.921875,13.96875 0,1.25 0.71875,1.875 2.15625,1.875 1,0 1.8125,-0.39062 2.4375,-1.17188 0.53125,-0.65624 0.75,-1.37501 0.65625,-2.15624 l -0.09375,-0.84376 c -0.03125,-0.21874 -0.0625,-0.40624 -0.09375,-0.5625 0.40625,-1.6875 1.6875,-5.125 3.84375,-10.3125 l 0.46875,-1.125 0.28125,-0.70312 c 4.0625,-0.1875 8.109375,-0.34375 12.140625,-0.46875 l -0.375,0.89063 c -3.25,7.34373 -4.875,11.95312 -4.875,13.82812 0,1.3125 0.734375,1.96875 2.203125,1.96875 1.125,0 1.859375,-0.79687 2.203125,-2.39063 0.1875,-0.71874 0.328125,-1.26562 0.421875,-1.64062 l 0.1875,-0.75 c 0.812502,-2.65625 2.156242,-6.20313 4.031252,-10.64062 l 0.51562,-1.21876 c 3.71875,0.28126 6.70313,0.78126 8.95313,1.5 0.59375,0.21876 1.07812,0.32813 1.45312,0.32813 1.0625,0 1.59375,-0.79687 1.59375,-2.390625 0,-1.1875 -0.90625,-1.953125 -2.71875,-2.296875 -1.71875,-0.34375 -4.26562,-0.65625 -7.64062,-0.9375 1.46875,-3.34375 3.20312,-6.921875 5.20312,-10.734375 2.40625,0.0625 5.26562,0.171875 8.57813,0.328125 0.75,0.09375 1.32812,0.140625 1.73437,0.140625 0.53125,0 0.9375,-0.15625 1.21875,-0.46875 0.4375,-0.5 0.65625,-1.078125 0.65625,-1.734375 0,-1.4375 -1.35937,-2.15625 -4.07812,-2.15625 -1.125,0 -2.625,0.03125 -4.5,0.09375 -0.53125,0.03125 -1.06251,0.04687 -1.59375,0.04687 2.6875,-4.875 4.82812,-8.515625 6.42187,-10.921875 1.71875,-2.46875 2.64062,-4.203125 2.76563,-5.203125 0.15624,-1.0625 -0.26563,-1.59375 -1.26563,-1.59375 z m -13.96875,21.375 -0.46875,0.984375 c -1.78125,3.375 -3.39062,6.59375 -4.82812,9.65625 -1.999999,0 -4.671877,0.01564 -8.015627,0.04687 h -2.578125 -1.5 l 0.46875,-1.03125 0.703125,-1.5 c 2.3125,-4.65625 3.59375,-7.21875 3.84375,-7.6875 l 1.5,-0.04687 c 4.624997,-0.1875 7.796877,-0.3125 9.515627,-0.375 z" xlink:href="#path1329"/><path style="font-style:normal;font-variant:normal;font-weight:400;font-stretch:normal;font-size:96px;font-family:'Informal Roman';-inkscape-font-specification:'Informal Roman, ';fill:url(#linearGradient893);fill-opacity:1;fill-rule:nonzero;stroke:#fff;stroke-width:1.1;stroke-linecap:round;stroke-linejoin:round;stroke-miterlimit:4;stroke-dasharray:none;stroke-opacity:1;paint-order:normal" id="path1530" d="m 120.68945,64.203125 c -0.53125,0 -1.0625,0.203125 -1.59375,0.609375 -0.8125,0.59375 -2.15625,2.515625 -4.03125,5.765625 -3.5625,6.25 -5.65625,9.953125 -6.28125,11.109375 -2.03125,-0.03125 -4.79687,-0.03125 -8.29687,0 h -2.296877 -1.453125 c 2,-4.15625 3.718742,-7.5 5.156252,-10.03125 1.78124,-3.15625 2.57812,-5.125 2.39062,-5.90625 -0.125,-0.625 -0.54688,-0.9375 -1.26562,-0.9375 -0.46876,0 -0.92188,0.1875 -1.35938,0.5625 -0.78125,0.65625 -1.984372,2.59375 -3.609372,5.8125 -0.34375,0.75 -1.59375,3.15625 -3.75,7.21875 -0.40625,0.78125 -0.84375,1.65625 -1.3125,2.625 l -0.375,0.65625 c -4.71875,-0.03125 -7.34375,-0.171875 -7.875,-0.421875 -1.53125,-0.53125 -2.546875,-0.796875 -3.046875,-0.796875 -0.59375,0 -1.09375,0.203125 -1.5,0.609375 -0.625,0.65625 -0.96875,1.46875 -1.03125,2.4375 -0.09375,1.875 1.828125,2.8125 5.765625,2.8125 1.34375,0 2.65625,-0.03125 3.9375,-0.09375 0.5,0 0.953125,-0.01564 1.359375,-0.04687 -1.8125,3.46875 -3.5,6.828125 -5.0625,10.078125 h -0.75 -1.171875 -1.875 c -2.5625,-0.03125 -4.296875,-0.0625 -5.203125,-0.09375 h -1.125 c -0.75,0 -1.296875,0.140658 -1.640625,0.421875 -0.78125,0.71875 -1.171875,1.515612 -1.171875,2.390625 0,1.281245 1.96875,1.921875 5.90625,1.921875 0.625,0 1.90625,-0.0314 3.84375,-0.0937 h 1.125 l -0.375,0.84375 c -3.28125,7.28125 -4.921875,11.9375 -4.921875,13.96875 0,1.25 0.71875,1.875 2.15625,1.875 1,0 1.8125,-0.39062 2.4375,-1.17188 0.53125,-0.65624 0.75,-1.37501 0.65625,-2.15624 l -0.09375,-0.84376 c -0.03125,-0.21874 -0.0625,-0.40624 -0.09375,-0.5625 0.40625,-1.6875 1.6875,-5.125 3.84375,-10.3125 l 0.46875,-1.125 0.28125,-0.70312 c 4.0625,-0.1875 8.109375,-0.34375 12.140625,-0.46875 l -0.375,0.89063 c -3.25,7.34373 -4.875,11.95312 -4.875,13.82812 0,1.3125 0.734375,1.96875 2.203125,1.96875 1.125,0 1.859375,-0.79687 2.203125,-2.39063 0.1875,-0.71874 0.328125,-1.26562 0.421875,-1.64062 l 0.1875,-0.75 c 0.812502,-2.65625 2.156242,-6.20313 4.031252,-10.64062 l 0.51562,-1.21876 c 3.71875,0.28126 6.70313,0.78126 8.95313,1.5 0.59375,0.21876 1.07812,0.32813 1.45312,0.32813 1.0625,0 1.59375,-0.79687 1.59375,-2.390625 0,-1.1875 -0.90625,-1.953125 -2.71875,-2.296875 -1.71875,-0.34375 -4.26562,-0.65625 -7.64062,-0.9375 1.46875,-3.34375 3.20312,-6.921875 5.20312,-10.734375 2.40625,0.0625 5.26562,0.171875 8.57813,0.328125 0.75,0.09375 1.32812,0.140625 1.73437,0.140625 0.53125,0 0.9375,-0.15625 1.21875,-0.46875 0.4375,-0.5 0.65625,-1.078125 0.65625,-1.734375 0,-1.4375 -1.35937,-2.15625 -4.07812,-2.15625 -1.125,0 -2.625,0.03125 -4.5,0.09375 -0.53125,0.03125 -1.06251,0.04687 -1.59375,0.04687 2.6875,-4.875 4.82812,-8.515625 6.42187,-10.921875 1.71875,-2.46875 2.64062,-4.203125 2.76563,-5.203125 0.15624,-1.0625 -0.26563,-1.59375 -1.26563,-1.59375 z m -13.96875,21.375 -0.46875,0.984375 c -1.78125,3.375 -3.39062,6.59375 -4.82812,9.65625 -1.999999,0 -4.671877,0.01564 -8.015627,0.04687 h -2.578125 -1.5 l 0.46875,-1.03125 0.703125,-1.5 c 2.3125,-4.65625 3.59375,-7.21875 3.84375,-7.6875 l 1.5,-0.04687 c 4.624997,-0.1875 7.796877,-0.3125 9.515627,-0.375 z" xlink:href="#path1329"/><path id="path1329" d="m 120.68896,64.20225 c -0.53125,0 -1.0625,0.203125 -1.59375,0.609375 -0.8125,0.59375 -2.15625,2.515625 -4.03125,5.765625 -3.5625,6.25 -5.65625,9.953125 -6.28125,11.109375 -2.03125,-0.03125 -4.79687,-0.03125 -8.29687,0 h -2.296879 -1.453125 c 2,-4.15625 3.718744,-7.5 5.156254,-10.03125 1.78124,-3.15625 2.57812,-5.125 2.39062,-5.90625 -0.125,-0.625 -0.54688,-0.9375 -1.26562,-0.9375 -0.46876,0 -0.92188,0.1875 -1.35938,0.5625 -0.78125,0.65625 -1.984374,2.59375 -3.609374,5.8125 -0.34375,0.75 -1.59375,3.15625 -3.75,7.21875 -0.40625,0.78125 -0.84375,1.65625 -1.3125,2.625 l -0.375,0.65625 c -4.71875,-0.03125 -7.34375,-0.171875 -7.875,-0.421875 -1.53125,-0.53125 -2.546875,-0.796875 -3.046875,-0.796875 -0.59375,0 -1.09375,0.203125 -1.5,0.609375 -0.625,0.65625 -0.96875,1.46875 -1.03125,2.4375 -0.09375,1.875 1.828125,2.8125 5.765625,2.8125 1.34375,0 2.65625,-0.03125 3.9375,-0.09375 0.5,0 0.953125,-0.01563 1.359375,-0.04687 -1.8125,3.46875 -3.5,6.828125 -5.0625,10.078125 h -0.75 -1.171875 -1.875 c -2.5625,-0.03125 -4.296875,-0.0625 -5.203125,-0.09375 h -1.125 c -0.75,0 -1.296875,0.140658 -1.640625,0.421875 -0.78125,0.71875 -1.171875,1.515622 -1.171875,2.390635 0,1.281245 1.96875,1.921875 5.90625,1.921875 0.625,0 1.90625,-0.0313 3.84375,-0.0937 h 1.125 l -0.375,0.84375 c -3.28125,7.28125 -4.921875,11.9375 -4.921875,13.96875 0,1.25 0.71875,1.875 2.15625,1.875 1,0 1.8125,-0.39063 2.4375,-1.17188 0.53125,-0.65625 0.75,-1.375 0.65625,-2.15624 l -0.09375,-0.84376 c -0.03125,-0.21875 -0.0625,-0.40625 -0.09375,-0.5625 0.40625,-1.6875 1.6875,-5.125 3.84375,-10.3125 l 0.46875,-1.125 0.28125,-0.70312 c 4.0625,-0.1875 8.109375,-0.34375 12.140625,-0.46875 l -0.375,0.89063 c -3.25,7.34374 -4.875,11.95312 -4.875,13.82812 0,1.3125 0.734375,1.96875 2.203125,1.96875 1.125,0 1.859375,-0.79688 2.203125,-2.39063 0.1875,-0.71875 0.328125,-1.26562 0.421875,-1.64062 l 0.1875,-0.75 c 0.812504,-2.65625 2.156244,-6.20313 4.031254,-10.64062 l 0.51562,-1.21876 c 3.71875,0.28125 6.70312,0.78125 8.95312,1.5 0.59375,0.21875 1.07813,0.32813 1.45313,0.32813 1.0625,0 1.59375,-0.79688 1.59375,-2.390635 0,-1.1875 -0.90625,-1.953125 -2.71875,-2.296875 -1.71875,-0.34375 -4.26563,-0.65625 -7.64063,-0.9375 1.46875,-3.34375 3.20313,-6.921875 5.20313,-10.734375 2.40625,0.0625 5.26562,0.171875 8.57813,0.328125 0.75,0.09375 1.32812,0.140625 1.73437,0.140625 0.53125,0 0.9375,-0.15625 1.21875,-0.46875 0.4375,-0.5 0.65625,-1.078125 0.65625,-1.734375 0,-1.4375 -1.35938,-2.15625 -4.07813,-2.15625 -1.125,0 -2.625,0.03125 -4.5,0.09375 -0.53125,0.03125 -1.0625,0.04687 -1.59374,0.04687 2.6875,-4.875 4.82812,-8.515625 6.42187,-10.921875 1.71875,-2.46875 2.64062,-4.203125 2.76563,-5.203125 0.15624,-1.0625 -0.26563,-1.59375 -1.26563,-1.59375 z m -13.96875,21.375 -0.46875,0.984375 c -1.78125,3.375 -3.39063,6.59375 -4.82813,9.65625 -1.999997,0 -4.671869,0.01563 -8.015619,0.04687 h -2.578125 -1.5 l 0.46875,-1.03125 0.703125,-1.5 c 2.3125,-4.65625 3.59375,-7.21875 3.84375,-7.6875 l 1.5,-0.04687 c 4.624999,-0.1875 7.796869,-0.3125 9.515619,-0.375 z" style="font-style:normal;font-variant:normal;font-weight:400;font-stretch:normal;font-size:96px;font-family:'Informal Roman';-inkscape-font-specification:'Informal Roman, ';fill:url(#linearGradient1528);fill-opacity:1;fill-rule:nonzero;stroke:#fff;stroke-width:1.1;stroke-linecap:round;stroke-linejoin:round;stroke-miterlimit:4;stroke-dasharray:none;stroke-opacity:1;paint-order:normal"/></g></g></svg>