<?xml version="1.0" encoding="UTF-8" standalone="no"?>
<svg
   xmlns:dc="http://purl.org/dc/elements/1.1/"
   xmlns:cc="http://creativecommons.org/ns#"
   xmlns:rdf="http://www.w3.org/1999/02/22-rdf-syntax-ns#"
   xmlns:svg="http://www.w3.org/2000/svg"
   xmlns="http://www.w3.org/2000/svg"
   xmlns:xlink="http://www.w3.org/1999/xlink"
   xmlns:sodipodi="http://sodipodi.sourceforge.net/DTD/sodipodi-0.dtd"
   xmlns:inkscape="http://www.inkscape.org/namespaces/inkscape"
   id="svg2"
   sodipodi:version="0.32"
   height="116.00024"
   width="115.8082"
   inkscape:version="1.0.1 (3bc2e813f5, 2020-09-07)"
   version="1.0"
   sodipodi:docname="MupenSharpSvg.svg"
   inkscape:output_extension="org.inkscape.output.svg.inkscape"
   inkscape:export-filename="D:\ForkRepos\MupenSharp\MupenSharp\DocFx\images\logo.png"
   inkscape:export-xdpi="33.103382"
   inkscape:export-ydpi="33.103382"
   viewBox="0 0 115.8082 116.00024">
  <metadata
     id="metadata7">
    <rdf:RDF>
      <cc:Work
         rdf:about="">
        <dc:format>image/svg+xml</dc:format>
        <dc:type
           rdf:resource="http://purl.org/dc/dcmitype/StillImage" />
        <dc:title></dc:title>
        <dc:date>August 17, 2008</dc:date>
        <dc:creator>
          <cc:Agent>
            <dc:title>Tillin9</dc:title>
          </cc:Agent>
        </dc:creator>
        <dc:rights>
          <cc:Agent>
            <dc:title>Copyright (C) Tillin9</dc:title>
          </cc:Agent>
        </dc:rights>
        <dc:source>GPL (v2 or later) </dc:source>
        <dc:description>This icon is original work created by Tillin9 for Mupen64plus. 

This icon is free software; you can redistribute it and/or modify it under the terms of the GNU General Public License as published by the Free Software Foundation; either version 2 of the License, or  (at your option) any later version.

You may also copy it under the Creative Common Attribution-ShareAlike 3.0 license, as found here:   http://creativecommons.org/licenses/by-sa/3.0/ 

It is the author's desire that SVG / vector format copies be GPLed and rasterizations licensed under Creative Commons. This is because there are no clear guidelines to applying the GPL to artwork, whereas vector data consitutes source.</dc:description>
      </cc:Work>
    </rdf:RDF>
  </metadata>
  <defs
     id="defs5">
    <linearGradient
       id="linearGradient5199">
      <stop
         style="stop-color:#aaff61;stop-opacity:1;"
         offset="0"
         id="stop1268" />
      <stop
         style="stop-color:#0e530d;stop-opacity:1"
         offset="1"
         id="stop1270" />
    </linearGradient>
    <linearGradient
       id="linearGradient3848">
      <stop
         id="stop3850"
         offset="0"
         style="stop-color:#980000;stop-opacity:1;" />
      <stop
         id="stop3852"
         offset="1"
         style="stop-color:#ff0000;stop-opacity:1;" />
    </linearGradient>
    <linearGradient
       id="linearGradient3840">
      <stop
         style="stop-color:#980000;stop-opacity:1;"
         offset="0"
         id="stop3842" />
      <stop
         style="stop-color:#ff0000;stop-opacity:1;"
         offset="1"
         id="stop3844" />
    </linearGradient>
    <linearGradient
       id="linearGradient3832">
      <stop
         style="stop-color:#980000;stop-opacity:1;"
         offset="0"
         id="stop3834" />
      <stop
         style="stop-color:#ff0000;stop-opacity:1;"
         offset="1"
         id="stop3836" />
    </linearGradient>
    <linearGradient
       id="linearGradient3824">
      <stop
         style="stop-color:#980000;stop-opacity:1;"
         offset="0"
         id="stop3826" />
      <stop
         style="stop-color:#ff0000;stop-opacity:1;"
         offset="1"
         id="stop3828" />
    </linearGradient>
    <linearGradient
       id="linearGradient3802">
      <stop
         style="stop-color:#000000;stop-opacity:1;"
         offset="0"
         id="stop3804" />
      <stop
         style="stop-color:#ffffff;stop-opacity:1;"
         offset="1"
         id="stop3806" />
    </linearGradient>
    <linearGradient
       id="linearGradient3786">
      <stop
         style="stop-color:#000000;stop-opacity:1;"
         offset="0"
         id="stop3788" />
      <stop
         style="stop-color:#ffffff;stop-opacity:1;"
         offset="1"
         id="stop3790" />
    </linearGradient>
    <linearGradient
       inkscape:collect="always"
       xlink:href="#linearGradient3786"
       id="linearGradient2552"
       gradientUnits="userSpaceOnUse"
       gradientTransform="translate(6.730946,3.1870015)"
       x1="64.584572"
       y1="43.5"
       x2="64.584572"
       y2="58.5" />
    <linearGradient
       inkscape:collect="always"
       xlink:href="#linearGradient3786"
       id="linearGradient2555"
       gradientUnits="userSpaceOnUse"
       gradientTransform="matrix(-1,0,0,1,173.83071,-15.312999)"
       x1="64.584572"
       y1="43.5"
       x2="64.584572"
       y2="58.5" />
    <linearGradient
       inkscape:collect="always"
       xlink:href="#linearGradient3832"
       id="linearGradient2558"
       gradientUnits="userSpaceOnUse"
       gradientTransform="matrix(-1,0,0,1,136.5961,2.8475355)"
       x1="27.349958"
       y1="101.33946"
       x2="65.280579"
       y2="82.839462" />
    <linearGradient
       inkscape:collect="always"
       xlink:href="#linearGradient3824"
       id="linearGradient2561"
       gradientUnits="userSpaceOnUse"
       gradientTransform="translate(75.745265,-0.15246458)"
       x1="20.173897"
       y1="97.839462"
       x2="46.827847"
       y2="84.839462" />
    <linearGradient
       inkscape:collect="always"
       xlink:href="#linearGradient3840"
       id="linearGradient2564"
       gradientUnits="userSpaceOnUse"
       gradientTransform="matrix(-1,0,0,1,135.90009,3.1870015)"
       x1="48.18214"
       y1="79.5"
       x2="42.031227"
       y2="82.5" />
    <linearGradient
       inkscape:collect="always"
       xlink:href="#linearGradient3802"
       id="linearGradient2567"
       gradientUnits="userSpaceOnUse"
       gradientTransform="matrix(-1,0,0,1,135.90009,3.1870015)"
       x1="46.131836"
       y1="57.5"
       x2="33.830013"
       y2="37.5" />
    <linearGradient
       inkscape:collect="always"
       xlink:href="#linearGradient3848"
       id="linearGradient2570"
       gradientUnits="userSpaceOnUse"
       gradientTransform="matrix(-1,0,0,1,135.90009,3.1870015)"
       x1="64.584572"
       y1="35.5"
       x2="31.779709"
       y2="51.5" />
    <linearGradient
       inkscape:collect="always"
       xlink:href="#linearGradient3802"
       id="linearGradient2573"
       gradientUnits="userSpaceOnUse"
       gradientTransform="translate(44.661565,-15.312999)"
       x1="46.131836"
       y1="57.5"
       x2="33.830013"
       y2="37.5" />
    <linearGradient
       inkscape:collect="always"
       xlink:href="#linearGradient3786"
       id="linearGradient2576"
       gradientUnits="userSpaceOnUse"
       gradientTransform="translate(-31.199675,-15.312999)"
       x1="64.584572"
       y1="43.5"
       x2="64.584572"
       y2="58.5" />
    <linearGradient
       inkscape:collect="always"
       xlink:href="#linearGradient3832"
       id="linearGradient2579"
       gradientUnits="userSpaceOnUse"
       gradientTransform="translate(6.034937,2.8475355)"
       x1="27.349958"
       y1="101.33946"
       x2="65.280579"
       y2="82.839462" />
    <linearGradient
       inkscape:collect="always"
       xlink:href="#linearGradient3824"
       id="linearGradient2582"
       gradientUnits="userSpaceOnUse"
       gradientTransform="matrix(-1,0,0,1,66.885767,-0.15246458)"
       x1="20.173897"
       y1="97.839462"
       x2="46.827847"
       y2="84.839462" />
    <linearGradient
       inkscape:collect="always"
       xlink:href="#linearGradient3840"
       id="linearGradient2585"
       gradientUnits="userSpaceOnUse"
       gradientTransform="translate(6.730946,3.1870015)"
       x1="48.18214"
       y1="79.5"
       x2="42.031227"
       y2="82.5" />
    <linearGradient
       inkscape:collect="always"
       xlink:href="#linearGradient3802"
       id="linearGradient2588"
       gradientUnits="userSpaceOnUse"
       gradientTransform="translate(6.730946,3.1870015)"
       x1="46.131836"
       y1="57.5"
       x2="33.830013"
       y2="37.5" />
    <linearGradient
       inkscape:collect="always"
       xlink:href="#linearGradient3848"
       id="linearGradient2591"
       gradientUnits="userSpaceOnUse"
       gradientTransform="translate(6.730946,3.1870015)"
       x1="64.584572"
       y1="35.5"
       x2="31.779709"
       y2="51.5" />
    <linearGradient
       inkscape:collect="always"
       xlink:href="#linearGradient3802"
       id="linearGradient2594"
       gradientUnits="userSpaceOnUse"
       gradientTransform="matrix(-1,0,0,1,97.969467,-15.312999)"
       x1="46.131836"
       y1="57.5"
       x2="33.830013"
       y2="37.5" />
    <linearGradient
       inkscape:collect="always"
       xlink:href="#linearGradient3786"
       id="linearGradient2597"
       gradientUnits="userSpaceOnUse"
       gradientTransform="translate(6.7309459,-33.812999)"
       x1="64.584572"
       y1="43.5"
       x2="64.584572"
       y2="58.5" />
    <linearGradient
       inkscape:collect="always"
       xlink:href="#linearGradient5199"
       id="linearGradient1266"
       x1="97.387909"
       y1="83.593742"
       x2="108.875"
       y2="114"
       gradientUnits="userSpaceOnUse"
       spreadMethod="pad"
       gradientTransform="translate(4.2812499,3.2182515)" />
    <linearGradient
       inkscape:collect="always"
       xlink:href="#linearGradient5199"
       id="linearGradient1327"
       gradientUnits="userSpaceOnUse"
       gradientTransform="translate(-4.5000001,-1.375)"
       x1="97.387909"
       y1="83.593742"
       x2="108.875"
       y2="114"
       spreadMethod="pad" />
    <linearGradient
       inkscape:collect="always"
       xlink:href="#linearGradient5199"
       id="linearGradient1348"
       gradientUnits="userSpaceOnUse"
       gradientTransform="translate(3.2485389,5.0941265)"
       x1="97.387909"
       y1="83.593742"
       x2="108.875"
       y2="114"
       spreadMethod="pad" />
    <linearGradient
       inkscape:collect="always"
       xlink:href="#linearGradient5199"
       id="linearGradient1528"
       gradientUnits="userSpaceOnUse"
       gradientTransform="translate(4.2812499,3.2182515)"
       x1="97.387909"
       y1="83.593742"
       x2="108.875"
       y2="114"
       spreadMethod="pad" />
    <linearGradient
       inkscape:collect="always"
       xlink:href="#linearGradient5199"
       id="linearGradient893"
       gradientUnits="userSpaceOnUse"
       gradientTransform="translate(4.2812499,3.2182515)"
       x1="97.387909"
       y1="83.593742"
       x2="108.875"
       y2="114"
       spreadMethod="pad" />
  </defs>
  <sodipodi:namedview
     inkscape:window-height="1377"
     inkscape:window-width="2560"
     inkscape:pageshadow="2"
     inkscape:pageopacity="0.0"
     guidetolerance="10.0"
     gridtolerance="10.0"
     objecttolerance="10.0"
     borderopacity="1.0"
     bordercolor="#666666"
     pagecolor="#ffffff"
     id="base"
     showgrid="true"
     inkscape:snap-global="true"
     showguides="true"
     inkscape:guide-bbox="true"
     inkscape:zoom="5.6568542"
     inkscape:cx="91.86347"
     inkscape:cy="78.472458"
     inkscape:window-x="-8"
     inkscape:window-y="-8"
     inkscape:current-layer="layer2"
     inkscape:document-rotation="0"
     inkscape:window-maximized="1"
     inkscape:snap-text-baseline="false"
     viewbox-height="128"
     scale-x="1"
     fit-margin-top="0"
     fit-margin-left="0"
     fit-margin-right="0"
     fit-margin-bottom="0" />
  <g
     inkscape:groupmode="layer"
     id="layer1"
     inkscape:label="MainM"
     transform="translate(-8.78125,-4.5932515)">
    <path
       sodipodi:type="inkscape:offset"
       inkscape:radius="2"
       inkscape:original="M 62.53125 7.09375 L 49.21875 13.59375 L 39.125 33.25 L 37.9375 32.09375 L 24.59375 25.59375 L 11.28125 32.09375 L 11.28125 93.09375 L 24.59375 99.59375 L 37.9375 93.09375 L 37.9375 80.09375 L 40.34375 81.25 L 49.21875 77 L 49.21875 111.59375 L 62.53125 118.09375 L 75.875 111.59375 L 75.875 77 L 84.75 81.25 L 87.125 80.09375 L 87.125 93.09375 L 100.46875 99.59375 L 113.78125 93.09375 L 113.78125 32.09375 L 100.46875 25.59375 L 87.125 32.09375 L 85.9375 33.25 L 75.875 13.59375 L 62.53125 7.09375 z M 42.03125 40.09375 L 42.0625 40.09375 L 48.03125 51.75 L 48 51.78125 L 42.03125 40.09375 z "
       style="fill:#000000;fill-opacity:1;fill-rule:evenodd;stroke:#000000;stroke-width:1;stroke-linecap:butt;stroke-linejoin:round;stroke-miterlimit:4;stroke-dasharray:none;stroke-opacity:1"
       id="path4621"
       d="m 62.486328,5.09375 a 2.0002,2.0002 0 0 0 -0.832031,0.203125 l -13.3125,6.5 a 2.0002,2.0002 0 0 0 -0.902344,0.882813 L 38.478516,30.130859 25.46875,23.794922 a 2.0002,2.0002 0 0 0 -1.751953,0.002 l -13.3125,6.5 A 2.0002,2.0002 0 0 0 9.28125,32.09375 v 61 a 2.0002,2.0002 0 0 0 1.123047,1.796875 l 13.3125,6.499995 a 2.0002,2.0002 0 0 0 1.751953,0.002 L 38.8125,94.892578 a 2.0002,2.0002 0 0 0 1.125,-1.798828 v -9.886719 a 2.0002,2.0002 0 0 0 1.269531,-0.152343 l 6.011719,-2.878907 v 31.417969 a 2.0002,2.0002 0 0 0 1.123047,1.79687 l 13.3125,6.5 a 2.0002,2.0002 0 0 0 1.751953,0.002 l 13.34375,-6.5 a 2.0002,2.0002 0 0 0 1.125,-1.79883 V 80.175781 l 6.011719,2.878907 A 2.0002,2.0002 0 0 0 85.125,83.212891 v 9.880859 a 2.0002,2.0002 0 0 0 1.125,1.798828 l 13.34375,6.500002 a 2.0002,2.0002 0 0 0 1.75195,-0.002 l 13.3125,-6.499995 a 2.0002,2.0002 0 0 0 1.12305,-1.796875 v -61 a 2.0002,2.0002 0 0 0 -1.12305,-1.796875 l -13.3125,-6.5 a 2.0002,2.0002 0 0 0 -1.75195,-0.002 L 86.587891,30.130859 77.65625,12.681641 A 2.0002,2.0002 0 0 0 76.75,11.794922 L 63.40625,5.2949219 A 2.0002,2.0002 0 0 0 62.486328,5.09375 Z" />
    <path
       sodipodi:nodetypes="ccccc"
       id="path3794"
       d="m 62.534267,20.09375 -13.326975,-6.5 13.326975,-6.5 13.326975,6.5 z"
       style="fill:url(#linearGradient2597);fill-opacity:1;fill-rule:evenodd;stroke:#ffffff;stroke-width:1.5;stroke-linecap:butt;stroke-linejoin:round;stroke-miterlimit:4;stroke-dasharray:none;stroke-opacity:1" />
    <path
       sodipodi:nodetypes="ccccc"
       id="path3810"
       d="m 62.534267,20.09375 -13.326975,-6.5 -12.301823,24 13.326975,6.5 z"
       style="fill:url(#linearGradient2594);fill-opacity:1;fill-rule:evenodd;stroke:#ffffff;stroke-width:1.5;stroke-linecap:butt;stroke-linejoin:round;stroke-miterlimit:4;stroke-dasharray:none;stroke-opacity:1" />
    <path
       style="fill:url(#linearGradient2591);fill-opacity:1;fill-rule:evenodd;stroke:#ffffff;stroke-width:1.5;stroke-linecap:butt;stroke-linejoin:round;stroke-miterlimit:4;stroke-dasharray:none;stroke-opacity:1"
       d="m 62.534267,44.09375 v -24 l -12.301823,24 -12.301823,-12 10.251519,20 14.352127,-8 v 0"
       id="path3734"
       sodipodi:nodetypes="ccccccc" />
    <path
       style="fill:url(#linearGradient2588);fill-opacity:1;fill-rule:evenodd;stroke:#ffffff;stroke-width:1;stroke-linecap:butt;stroke-linejoin:round;stroke-miterlimit:4;stroke-dasharray:none;stroke-opacity:1"
       d="m 24.603646,38.59375 13.326975,-6.5 12.301823,24 -13.326975,6.5 z"
       id="path3720"
       sodipodi:nodetypes="ccccc" />
    <path
       style="fill:url(#linearGradient2585);fill-opacity:1;fill-rule:evenodd;stroke:#ffffff;stroke-width:1.5;stroke-linecap:butt;stroke-linejoin:round;stroke-miterlimit:4;stroke-dasharray:none;stroke-opacity:1"
       d="M 40.332696,81.26475 49.207292,77 v -4.40625 z"
       id="path3736"
       sodipodi:nodetypes="cccc" />
    <path
       sodipodi:nodetypes="cccc"
       id="path3742"
       d="M 37.930621,80.093746 V 93.09375 l -13.326975,6.5 V 60.593746"
       style="fill:url(#linearGradient2582);fill-opacity:1;fill-rule:evenodd;stroke:#ffffff;stroke-width:1.5;stroke-linecap:butt;stroke-linejoin:round;stroke-miterlimit:4;stroke-dasharray:none;stroke-opacity:1" />
    <path
       style="opacity:0.96;fill:url(#linearGradient2579);fill-opacity:1;fill-rule:evenodd;stroke:#ffffff;stroke-width:1.5;stroke-linecap:butt;stroke-linejoin:round;stroke-miterlimit:4;stroke-dasharray:none;stroke-opacity:1"
       d="m 49.207292,111.59375 13.326975,6.5 v -61 l -13.326975,-6.5 -12.301823,12 -12.301823,-24 -13.326975,-6.5 v 61 l 13.326975,6.5 v -39 l 8.897224,17.339466 6.831623,3.332005 8.874799,-8.671471 z"
       id="path2384"
       sodipodi:nodetypes="cccccccccccccc" />
    <path
       style="fill:url(#linearGradient2576);fill-opacity:1;fill-rule:evenodd;stroke:#ffffff;stroke-width:1.5;stroke-linecap:butt;stroke-linejoin:round;stroke-miterlimit:4;stroke-dasharray:none;stroke-opacity:1"
       d="m 24.603646,38.59375 -13.326975,-6.5 13.326975,-6.5 13.326975,6.5 z"
       id="path3796"
       sodipodi:nodetypes="ccccc" />
    <path
       style="fill:url(#linearGradient2573);fill-opacity:1;fill-rule:evenodd;stroke:#ffffff;stroke-width:1.5;stroke-linecap:butt;stroke-linejoin:round;stroke-miterlimit:4;stroke-dasharray:none;stroke-opacity:1"
       d="m 62.534265,20.09375 13.326975,-6.5 12.301823,24 -13.326975,6.5 z"
       id="path3889"
       sodipodi:nodetypes="ccccc" />
    <path
       sodipodi:nodetypes="ccccccc"
       id="path3891"
       d="m 62.534265,44.09375 v -24 l 12.301823,24 12.301823,-12 -10.251519,20 -14.352127,-8 v 0"
       style="fill:url(#linearGradient2570);fill-opacity:1;fill-rule:evenodd;stroke:#ffffff;stroke-width:1.5;stroke-linecap:butt;stroke-linejoin:round;stroke-miterlimit:4;stroke-dasharray:none;stroke-opacity:1" />
    <path
       sodipodi:nodetypes="ccccc"
       id="path3893"
       d="m 100.46489,38.59375 -13.326979,-6.5 -12.301823,24 13.326975,6.5 z"
       style="fill:url(#linearGradient2567);fill-opacity:1;fill-rule:evenodd;stroke:#ffffff;stroke-width:1;stroke-linecap:butt;stroke-linejoin:round;stroke-miterlimit:4;stroke-dasharray:none;stroke-opacity:1" />
    <path
       sodipodi:nodetypes="cccc"
       id="path3895"
       d="M 84.735836,81.26475 75.86124,77 v -4.40625 z"
       style="fill:url(#linearGradient2564);fill-opacity:1;fill-rule:evenodd;stroke:#ffffff;stroke-width:1.5;stroke-linecap:butt;stroke-linejoin:round;stroke-miterlimit:4;stroke-dasharray:none;stroke-opacity:1" />
    <path
       style="fill:url(#linearGradient2561);fill-opacity:1;fill-rule:evenodd;stroke:#ffffff;stroke-width:1.5;stroke-linecap:butt;stroke-linejoin:round;stroke-miterlimit:4;stroke-dasharray:none;stroke-opacity:1"
       d="M 87.137911,80.093746 V 93.09375 l 13.326979,6.5 V 60.593746"
       id="path3897"
       sodipodi:nodetypes="cccc" />
    <path
       sodipodi:nodetypes="cccccccccccccc"
       id="path3899"
       d="m 75.86124,111.59375 -13.326975,6.5 v -61 l 13.326975,-6.5 12.301823,12 12.301827,-24 13.32697,-6.5 v 61 l -13.32697,6.5 v -39 L 91.567662,77.933216 84.736039,81.265221 75.86124,72.59375 Z"
       style="fill:url(#linearGradient2558);fill-opacity:1;fill-rule:evenodd;stroke:#ffffff;stroke-width:1.5;stroke-linecap:butt;stroke-linejoin:round;stroke-miterlimit:4;stroke-dasharray:none;stroke-opacity:1" />
    <path
       sodipodi:nodetypes="ccccc"
       id="path3901"
       d="m 100.46489,38.59375 13.32697,-6.5 -13.32697,-6.5 -13.326979,6.5 z"
       style="fill:url(#linearGradient2555);fill-opacity:1;fill-rule:evenodd;stroke:#ffffff;stroke-width:1.5;stroke-linecap:butt;stroke-linejoin:round;stroke-miterlimit:4;stroke-dasharray:none;stroke-opacity:1" />
    <path
       style="fill:url(#linearGradient2552);fill-opacity:1;fill-rule:evenodd;stroke:#ffffff;stroke-width:1.5;stroke-linecap:butt;stroke-linejoin:round;stroke-miterlimit:4;stroke-dasharray:none;stroke-opacity:1"
       d="m 62.534267,57.09375 -13.326975,-6.5 13.326975,-6.5 13.326975,6.5 z"
       id="path3714"
       sodipodi:nodetypes="ccccc" />
  </g>
  <g
     inkscape:groupmode="layer"
     id="layer2"
     inkscape:label="Hash"
     style="display:inline"
     transform="translate(-8.78125,-4.5932515)">
    <g
       aria-label="#"
       id="text435"
       style="font-style:normal;font-variant:normal;font-weight:normal;font-stretch:normal;font-size:96px;line-height:1.25;font-family:'Informal Roman';-inkscape-font-specification:'Informal Roman, ';opacity:1;fill:url(#linearGradient1266);fill-opacity:1;fill-rule:nonzero;stroke:#000000;stroke-width:2;stroke-miterlimit:4;stroke-dasharray:none;stroke-opacity:1;paint-order:stroke fill markers">
      <path
         style="font-style:normal;font-variant:normal;font-weight:normal;font-stretch:normal;font-size:96px;font-family:'Informal Roman';-inkscape-font-specification:'Informal Roman, ';fill:url(#linearGradient1348);fill-opacity:1;fill-rule:nonzero;stroke:#000000;stroke-width:3.3;stroke-linecap:round;stroke-linejoin:round;stroke-miterlimit:4;stroke-dasharray:none;stroke-opacity:1;paint-order:normal"
         sodipodi:type="inkscape:offset"
         inkscape:radius="0"
         inkscape:original="M 120.68945 64.203125 C 120.1582 64.203125 119.62695 64.40625 119.0957 64.8125 C 118.2832 65.40625 116.93945 67.328125 115.06445 70.578125 C 111.50195 76.828125 109.4082 80.53125 108.7832 81.6875 C 106.75195 81.65625 103.98633 81.65625 100.48633 81.6875 L 98.189453 81.6875 L 96.736328 81.6875 C 98.736328 77.53125 100.45507 74.1875 101.89258 71.65625 C 103.67382 68.5 104.4707 66.53125 104.2832 65.75 C 104.1582 65.125 103.73632 64.8125 103.01758 64.8125 C 102.54882 64.8125 102.0957 65 101.6582 65.375 C 100.87695 66.03125 99.673828 67.96875 98.048828 71.1875 C 97.705078 71.9375 96.455078 74.34375 94.298828 78.40625 C 93.892578 79.1875 93.455078 80.0625 92.986328 81.03125 L 92.611328 81.6875 C 87.892578 81.65625 85.267578 81.515625 84.736328 81.265625 C 83.205078 80.734375 82.189453 80.46875 81.689453 80.46875 C 81.095703 80.46875 80.595703 80.671875 80.189453 81.078125 C 79.564453 81.734375 79.220703 82.546875 79.158203 83.515625 C 79.064453 85.390625 80.986328 86.328125 84.923828 86.328125 C 86.267578 86.328125 87.580078 86.296875 88.861328 86.234375 C 89.361328 86.234375 89.814453 86.21874 90.220703 86.1875 C 88.408203 89.65625 86.720703 93.015625 85.158203 96.265625 L 84.408203 96.265625 L 83.236328 96.265625 L 81.361328 96.265625 C 78.798828 96.234375 77.064453 96.203125 76.158203 96.171875 L 75.033203 96.171875 C 74.283203 96.171875 73.736328 96.312533 73.392578 96.59375 C 72.611328 97.3125 72.220703 98.109362 72.220703 98.984375 C 72.220703 100.26562 74.189453 100.90625 78.126953 100.90625 C 78.751953 100.90625 80.033203 100.8749 81.970703 100.8125 L 83.095703 100.8125 L 82.720703 101.65625 C 79.439453 108.9375 77.798828 113.59375 77.798828 115.625 C 77.798828 116.875 78.517578 117.5 79.955078 117.5 C 80.955078 117.5 81.767578 117.10938 82.392578 116.32812 C 82.923828 115.67188 83.142578 114.95311 83.048828 114.17188 L 82.955078 113.32812 C 82.923828 113.10938 82.892578 112.92188 82.861328 112.76562 C 83.267578 111.07812 84.548828 107.64062 86.705078 102.45312 L 87.173828 101.32812 L 87.455078 100.625 C 91.517578 100.4375 95.564453 100.28125 99.595703 100.15625 L 99.220703 101.04688 C 95.970703 108.39061 94.345703 113 94.345703 114.875 C 94.345703 116.1875 95.080078 116.84375 96.548828 116.84375 C 97.673828 116.84375 98.408203 116.04688 98.751953 114.45312 C 98.939453 113.73438 99.080078 113.1875 99.173828 112.8125 L 99.361328 112.0625 C 100.17383 109.40625 101.51757 105.85937 103.39258 101.42188 L 103.9082 100.20312 C 107.62695 100.48438 110.61133 100.98438 112.86133 101.70312 C 113.45508 101.92188 113.93945 102.03125 114.31445 102.03125 C 115.37695 102.03125 115.9082 101.23438 115.9082 99.640625 C 115.9082 98.453125 115.00195 97.6875 113.18945 97.34375 C 111.4707 97 108.92383 96.6875 105.54883 96.40625 C 107.01758 93.0625 108.75195 89.484375 110.75195 85.671875 C 113.1582 85.734375 116.01757 85.84375 119.33008 86 C 120.08008 86.09375 120.6582 86.140625 121.06445 86.140625 C 121.5957 86.140625 122.00195 85.984375 122.2832 85.671875 C 122.7207 85.171875 122.93945 84.59375 122.93945 83.9375 C 122.93945 82.5 121.58008 81.78125 118.86133 81.78125 C 117.73633 81.78125 116.23633 81.8125 114.36133 81.875 C 113.83008 81.90625 113.29882 81.921875 112.76758 81.921875 C 115.45508 77.046875 117.5957 73.40625 119.18945 71 C 120.9082 68.53125 121.83007 66.796875 121.95508 65.796875 C 122.11132 64.734375 121.68945 64.203125 120.68945 64.203125 z M 106.7207 85.578125 L 106.25195 86.5625 C 104.4707 89.9375 102.86133 93.15625 101.42383 96.21875 C 99.423831 96.21875 96.751953 96.234385 93.408203 96.265625 L 90.830078 96.265625 L 89.330078 96.265625 L 89.798828 95.234375 L 90.501953 93.734375 C 92.814453 89.078125 94.095703 86.515625 94.345703 86.046875 L 95.845703 86 C 100.4707 85.8125 103.64258 85.6875 105.36133 85.625 L 106.7207 85.578125 z "
         xlink:href="#path1329"
         id="path1350"
         inkscape:href="#path1329"
         d="m 120.68945,64.203125 c -0.53125,0 -1.0625,0.203125 -1.59375,0.609375 -0.8125,0.59375 -2.15625,2.515625 -4.03125,5.765625 -3.5625,6.25 -5.65625,9.953125 -6.28125,11.109375 -2.03125,-0.03125 -4.79687,-0.03125 -8.29687,0 h -2.296877 -1.453125 c 2,-4.15625 3.718742,-7.5 5.156252,-10.03125 1.78124,-3.15625 2.57812,-5.125 2.39062,-5.90625 -0.125,-0.625 -0.54688,-0.9375 -1.26562,-0.9375 -0.46876,0 -0.92188,0.1875 -1.35938,0.5625 -0.78125,0.65625 -1.984372,2.59375 -3.609372,5.8125 -0.34375,0.75 -1.59375,3.15625 -3.75,7.21875 -0.40625,0.78125 -0.84375,1.65625 -1.3125,2.625 l -0.375,0.65625 c -4.71875,-0.03125 -7.34375,-0.171875 -7.875,-0.421875 -1.53125,-0.53125 -2.546875,-0.796875 -3.046875,-0.796875 -0.59375,0 -1.09375,0.203125 -1.5,0.609375 -0.625,0.65625 -0.96875,1.46875 -1.03125,2.4375 -0.09375,1.875 1.828125,2.8125 5.765625,2.8125 1.34375,0 2.65625,-0.03125 3.9375,-0.09375 0.5,0 0.953125,-0.01564 1.359375,-0.04687 -1.8125,3.46875 -3.5,6.828125 -5.0625,10.078125 h -0.75 -1.171875 -1.875 c -2.5625,-0.03125 -4.296875,-0.0625 -5.203125,-0.09375 h -1.125 c -0.75,0 -1.296875,0.140658 -1.640625,0.421875 -0.78125,0.71875 -1.171875,1.515612 -1.171875,2.390625 0,1.281245 1.96875,1.921875 5.90625,1.921875 0.625,0 1.90625,-0.0314 3.84375,-0.0937 h 1.125 l -0.375,0.84375 c -3.28125,7.28125 -4.921875,11.9375 -4.921875,13.96875 0,1.25 0.71875,1.875 2.15625,1.875 1,0 1.8125,-0.39062 2.4375,-1.17188 0.53125,-0.65624 0.75,-1.37501 0.65625,-2.15624 l -0.09375,-0.84376 c -0.03125,-0.21874 -0.0625,-0.40624 -0.09375,-0.5625 0.40625,-1.6875 1.6875,-5.125 3.84375,-10.3125 l 0.46875,-1.125 0.28125,-0.70312 c 4.0625,-0.1875 8.109375,-0.34375 12.140625,-0.46875 l -0.375,0.89063 c -3.25,7.34373 -4.875,11.95312 -4.875,13.82812 0,1.3125 0.734375,1.96875 2.203125,1.96875 1.125,0 1.859375,-0.79687 2.203125,-2.39063 0.1875,-0.71874 0.328125,-1.26562 0.421875,-1.64062 l 0.1875,-0.75 c 0.812502,-2.65625 2.156242,-6.20313 4.031252,-10.64062 l 0.51562,-1.21876 c 3.71875,0.28126 6.70313,0.78126 8.95313,1.5 0.59375,0.21876 1.07812,0.32813 1.45312,0.32813 1.0625,0 1.59375,-0.79687 1.59375,-2.390625 0,-1.1875 -0.90625,-1.953125 -2.71875,-2.296875 -1.71875,-0.34375 -4.26562,-0.65625 -7.64062,-0.9375 1.46875,-3.34375 3.20312,-6.921875 5.20312,-10.734375 2.40625,0.0625 5.26562,0.171875 8.57813,0.328125 0.75,0.09375 1.32812,0.140625 1.73437,0.140625 0.53125,0 0.9375,-0.15625 1.21875,-0.46875 0.4375,-0.5 0.65625,-1.078125 0.65625,-1.734375 0,-1.4375 -1.35937,-2.15625 -4.07812,-2.15625 -1.125,0 -2.625,0.03125 -4.5,0.09375 -0.53125,0.03125 -1.06251,0.04687 -1.59375,0.04687 2.6875,-4.875 4.82812,-8.515625 6.42187,-10.921875 1.71875,-2.46875 2.64062,-4.203125 2.76563,-5.203125 0.15624,-1.0625 -0.26563,-1.59375 -1.26563,-1.59375 z m -13.96875,21.375 -0.46875,0.984375 c -1.78125,3.375 -3.39062,6.59375 -4.82812,9.65625 -1.999999,0 -4.671877,0.01564 -8.015627,0.04687 h -2.578125 -1.5 l 0.46875,-1.03125 0.703125,-1.5 c 2.3125,-4.65625 3.59375,-7.21875 3.84375,-7.6875 l 1.5,-0.04687 c 4.624997,-0.1875 7.796877,-0.3125 9.515627,-0.375 z" />
      <path
         style="font-style:normal;font-variant:normal;font-weight:normal;font-stretch:normal;font-size:96px;font-family:'Informal Roman';-inkscape-font-specification:'Informal Roman, ';fill:url(#linearGradient893);fill-opacity:1;fill-rule:nonzero;stroke:#ffffff;stroke-width:1.1;stroke-linecap:round;stroke-linejoin:round;stroke-miterlimit:4;stroke-dasharray:none;stroke-opacity:1;paint-order:normal"
         sodipodi:type="inkscape:offset"
         inkscape:radius="0"
         inkscape:original="M 120.68945 64.203125 C 120.1582 64.203125 119.62695 64.40625 119.0957 64.8125 C 118.2832 65.40625 116.93945 67.328125 115.06445 70.578125 C 111.50195 76.828125 109.4082 80.53125 108.7832 81.6875 C 106.75195 81.65625 103.98633 81.65625 100.48633 81.6875 L 98.189453 81.6875 L 96.736328 81.6875 C 98.736328 77.53125 100.45507 74.1875 101.89258 71.65625 C 103.67382 68.5 104.4707 66.53125 104.2832 65.75 C 104.1582 65.125 103.73632 64.8125 103.01758 64.8125 C 102.54882 64.8125 102.0957 65 101.6582 65.375 C 100.87695 66.03125 99.673828 67.96875 98.048828 71.1875 C 97.705078 71.9375 96.455078 74.34375 94.298828 78.40625 C 93.892578 79.1875 93.455078 80.0625 92.986328 81.03125 L 92.611328 81.6875 C 87.892578 81.65625 85.267578 81.515625 84.736328 81.265625 C 83.205078 80.734375 82.189453 80.46875 81.689453 80.46875 C 81.095703 80.46875 80.595703 80.671875 80.189453 81.078125 C 79.564453 81.734375 79.220703 82.546875 79.158203 83.515625 C 79.064453 85.390625 80.986328 86.328125 84.923828 86.328125 C 86.267578 86.328125 87.580078 86.296875 88.861328 86.234375 C 89.361328 86.234375 89.814453 86.21874 90.220703 86.1875 C 88.408203 89.65625 86.720703 93.015625 85.158203 96.265625 L 84.408203 96.265625 L 83.236328 96.265625 L 81.361328 96.265625 C 78.798828 96.234375 77.064453 96.203125 76.158203 96.171875 L 75.033203 96.171875 C 74.283203 96.171875 73.736328 96.312533 73.392578 96.59375 C 72.611328 97.3125 72.220703 98.109362 72.220703 98.984375 C 72.220703 100.26562 74.189453 100.90625 78.126953 100.90625 C 78.751953 100.90625 80.033203 100.8749 81.970703 100.8125 L 83.095703 100.8125 L 82.720703 101.65625 C 79.439453 108.9375 77.798828 113.59375 77.798828 115.625 C 77.798828 116.875 78.517578 117.5 79.955078 117.5 C 80.955078 117.5 81.767578 117.10938 82.392578 116.32812 C 82.923828 115.67188 83.142578 114.95311 83.048828 114.17188 L 82.955078 113.32812 C 82.923828 113.10938 82.892578 112.92188 82.861328 112.76562 C 83.267578 111.07812 84.548828 107.64062 86.705078 102.45312 L 87.173828 101.32812 L 87.455078 100.625 C 91.517578 100.4375 95.564453 100.28125 99.595703 100.15625 L 99.220703 101.04688 C 95.970703 108.39061 94.345703 113 94.345703 114.875 C 94.345703 116.1875 95.080078 116.84375 96.548828 116.84375 C 97.673828 116.84375 98.408203 116.04688 98.751953 114.45312 C 98.939453 113.73438 99.080078 113.1875 99.173828 112.8125 L 99.361328 112.0625 C 100.17383 109.40625 101.51757 105.85937 103.39258 101.42188 L 103.9082 100.20312 C 107.62695 100.48438 110.61133 100.98438 112.86133 101.70312 C 113.45508 101.92188 113.93945 102.03125 114.31445 102.03125 C 115.37695 102.03125 115.9082 101.23438 115.9082 99.640625 C 115.9082 98.453125 115.00195 97.6875 113.18945 97.34375 C 111.4707 97 108.92383 96.6875 105.54883 96.40625 C 107.01758 93.0625 108.75195 89.484375 110.75195 85.671875 C 113.1582 85.734375 116.01757 85.84375 119.33008 86 C 120.08008 86.09375 120.6582 86.140625 121.06445 86.140625 C 121.5957 86.140625 122.00195 85.984375 122.2832 85.671875 C 122.7207 85.171875 122.93945 84.59375 122.93945 83.9375 C 122.93945 82.5 121.58008 81.78125 118.86133 81.78125 C 117.73633 81.78125 116.23633 81.8125 114.36133 81.875 C 113.83008 81.90625 113.29882 81.921875 112.76758 81.921875 C 115.45508 77.046875 117.5957 73.40625 119.18945 71 C 120.9082 68.53125 121.83007 66.796875 121.95508 65.796875 C 122.11132 64.734375 121.68945 64.203125 120.68945 64.203125 z M 106.7207 85.578125 L 106.25195 86.5625 C 104.4707 89.9375 102.86133 93.15625 101.42383 96.21875 C 99.423831 96.21875 96.751953 96.234385 93.408203 96.265625 L 90.830078 96.265625 L 89.330078 96.265625 L 89.798828 95.234375 L 90.501953 93.734375 C 92.814453 89.078125 94.095703 86.515625 94.345703 86.046875 L 95.845703 86 C 100.4707 85.8125 103.64258 85.6875 105.36133 85.625 L 106.7207 85.578125 z "
         xlink:href="#path1329"
         id="path1530"
         inkscape:href="#path1329"
         d="m 120.68945,64.203125 c -0.53125,0 -1.0625,0.203125 -1.59375,0.609375 -0.8125,0.59375 -2.15625,2.515625 -4.03125,5.765625 -3.5625,6.25 -5.65625,9.953125 -6.28125,11.109375 -2.03125,-0.03125 -4.79687,-0.03125 -8.29687,0 h -2.296877 -1.453125 c 2,-4.15625 3.718742,-7.5 5.156252,-10.03125 1.78124,-3.15625 2.57812,-5.125 2.39062,-5.90625 -0.125,-0.625 -0.54688,-0.9375 -1.26562,-0.9375 -0.46876,0 -0.92188,0.1875 -1.35938,0.5625 -0.78125,0.65625 -1.984372,2.59375 -3.609372,5.8125 -0.34375,0.75 -1.59375,3.15625 -3.75,7.21875 -0.40625,0.78125 -0.84375,1.65625 -1.3125,2.625 l -0.375,0.65625 c -4.71875,-0.03125 -7.34375,-0.171875 -7.875,-0.421875 -1.53125,-0.53125 -2.546875,-0.796875 -3.046875,-0.796875 -0.59375,0 -1.09375,0.203125 -1.5,0.609375 -0.625,0.65625 -0.96875,1.46875 -1.03125,2.4375 -0.09375,1.875 1.828125,2.8125 5.765625,2.8125 1.34375,0 2.65625,-0.03125 3.9375,-0.09375 0.5,0 0.953125,-0.01564 1.359375,-0.04687 -1.8125,3.46875 -3.5,6.828125 -5.0625,10.078125 h -0.75 -1.171875 -1.875 c -2.5625,-0.03125 -4.296875,-0.0625 -5.203125,-0.09375 h -1.125 c -0.75,0 -1.296875,0.140658 -1.640625,0.421875 -0.78125,0.71875 -1.171875,1.515612 -1.171875,2.390625 0,1.281245 1.96875,1.921875 5.90625,1.921875 0.625,0 1.90625,-0.0314 3.84375,-0.0937 h 1.125 l -0.375,0.84375 c -3.28125,7.28125 -4.921875,11.9375 -4.921875,13.96875 0,1.25 0.71875,1.875 2.15625,1.875 1,0 1.8125,-0.39062 2.4375,-1.17188 0.53125,-0.65624 0.75,-1.37501 0.65625,-2.15624 l -0.09375,-0.84376 c -0.03125,-0.21874 -0.0625,-0.40624 -0.09375,-0.5625 0.40625,-1.6875 1.6875,-5.125 3.84375,-10.3125 l 0.46875,-1.125 0.28125,-0.70312 c 4.0625,-0.1875 8.109375,-0.34375 12.140625,-0.46875 l -0.375,0.89063 c -3.25,7.34373 -4.875,11.95312 -4.875,13.82812 0,1.3125 0.734375,1.96875 2.203125,1.96875 1.125,0 1.859375,-0.79687 2.203125,-2.39063 0.1875,-0.71874 0.328125,-1.26562 0.421875,-1.64062 l 0.1875,-0.75 c 0.812502,-2.65625 2.156242,-6.20313 4.031252,-10.64062 l 0.51562,-1.21876 c 3.71875,0.28126 6.70313,0.78126 8.95313,1.5 0.59375,0.21876 1.07812,0.32813 1.45312,0.32813 1.0625,0 1.59375,-0.79687 1.59375,-2.390625 0,-1.1875 -0.90625,-1.953125 -2.71875,-2.296875 -1.71875,-0.34375 -4.26562,-0.65625 -7.64062,-0.9375 1.46875,-3.34375 3.20312,-6.921875 5.20312,-10.734375 2.40625,0.0625 5.26562,0.171875 8.57813,0.328125 0.75,0.09375 1.32812,0.140625 1.73437,0.140625 0.53125,0 0.9375,-0.15625 1.21875,-0.46875 0.4375,-0.5 0.65625,-1.078125 0.65625,-1.734375 0,-1.4375 -1.35937,-2.15625 -4.07812,-2.15625 -1.125,0 -2.625,0.03125 -4.5,0.09375 -0.53125,0.03125 -1.06251,0.04687 -1.59375,0.04687 2.6875,-4.875 4.82812,-8.515625 6.42187,-10.921875 1.71875,-2.46875 2.64062,-4.203125 2.76563,-5.203125 0.15624,-1.0625 -0.26563,-1.59375 -1.26563,-1.59375 z m -13.96875,21.375 -0.46875,0.984375 c -1.78125,3.375 -3.39062,6.59375 -4.82812,9.65625 -1.999999,0 -4.671877,0.01564 -8.015627,0.04687 h -2.578125 -1.5 l 0.46875,-1.03125 0.703125,-1.5 c 2.3125,-4.65625 3.59375,-7.21875 3.84375,-7.6875 l 1.5,-0.04687 c 4.624997,-0.1875 7.796877,-0.3125 9.515627,-0.375 z" />
      <path
         id="path1329"
         style="font-style:normal;font-variant:normal;font-weight:normal;font-stretch:normal;font-size:96px;font-family:'Informal Roman';-inkscape-font-specification:'Informal Roman, ';fill:url(#linearGradient1528);fill-opacity:1;fill-rule:nonzero;stroke:#ffffff;stroke-width:1.1;stroke-linecap:round;stroke-linejoin:round;stroke-miterlimit:4;stroke-dasharray:none;stroke-opacity:1;paint-order:normal"
         d="m 120.68896,64.20225 c -0.53125,0 -1.0625,0.203125 -1.59375,0.609375 -0.8125,0.59375 -2.15625,2.515625 -4.03125,5.765625 -3.5625,6.25 -5.65625,9.953125 -6.28125,11.109375 -2.03125,-0.03125 -4.79687,-0.03125 -8.29687,0 h -2.296879 -1.453125 c 2,-4.15625 3.718744,-7.5 5.156254,-10.03125 1.78124,-3.15625 2.57812,-5.125 2.39062,-5.90625 -0.125,-0.625 -0.54688,-0.9375 -1.26562,-0.9375 -0.46876,0 -0.92188,0.1875 -1.35938,0.5625 -0.78125,0.65625 -1.984374,2.59375 -3.609374,5.8125 -0.34375,0.75 -1.59375,3.15625 -3.75,7.21875 -0.40625,0.78125 -0.84375,1.65625 -1.3125,2.625 l -0.375,0.65625 c -4.71875,-0.03125 -7.34375,-0.171875 -7.875,-0.421875 -1.53125,-0.53125 -2.546875,-0.796875 -3.046875,-0.796875 -0.59375,0 -1.09375,0.203125 -1.5,0.609375 -0.625,0.65625 -0.96875,1.46875 -1.03125,2.4375 -0.09375,1.875 1.828125,2.8125 5.765625,2.8125 1.34375,0 2.65625,-0.03125 3.9375,-0.09375 0.5,0 0.953125,-0.01563 1.359375,-0.04687 -1.8125,3.46875 -3.5,6.828125 -5.0625,10.078125 h -0.75 -1.171875 -1.875 c -2.5625,-0.03125 -4.296875,-0.0625 -5.203125,-0.09375 h -1.125 c -0.75,0 -1.296875,0.140658 -1.640625,0.421875 -0.78125,0.71875 -1.171875,1.515622 -1.171875,2.390635 0,1.281245 1.96875,1.921875 5.90625,1.921875 0.625,0 1.90625,-0.0313 3.84375,-0.0937 h 1.125 l -0.375,0.84375 c -3.28125,7.28125 -4.921875,11.9375 -4.921875,13.96875 0,1.25 0.71875,1.875 2.15625,1.875 1,0 1.8125,-0.39063 2.4375,-1.17188 0.53125,-0.65625 0.75,-1.375 0.65625,-2.15624 l -0.09375,-0.84376 c -0.03125,-0.21875 -0.0625,-0.40625 -0.09375,-0.5625 0.40625,-1.6875 1.6875,-5.125 3.84375,-10.3125 l 0.46875,-1.125 0.28125,-0.70312 c 4.0625,-0.1875 8.109375,-0.34375 12.140625,-0.46875 l -0.375,0.89063 c -3.25,7.34374 -4.875,11.95312 -4.875,13.82812 0,1.3125 0.734375,1.96875 2.203125,1.96875 1.125,0 1.859375,-0.79688 2.203125,-2.39063 0.1875,-0.71875 0.328125,-1.26562 0.421875,-1.64062 l 0.1875,-0.75 c 0.812504,-2.65625 2.156244,-6.20313 4.031254,-10.64062 l 0.51562,-1.21876 c 3.71875,0.28125 6.70312,0.78125 8.95312,1.5 0.59375,0.21875 1.07813,0.32813 1.45313,0.32813 1.0625,0 1.59375,-0.79688 1.59375,-2.390635 0,-1.1875 -0.90625,-1.953125 -2.71875,-2.296875 -1.71875,-0.34375 -4.26563,-0.65625 -7.64063,-0.9375 1.46875,-3.34375 3.20313,-6.921875 5.20313,-10.734375 2.40625,0.0625 5.26562,0.171875 8.57813,0.328125 0.75,0.09375 1.32812,0.140625 1.73437,0.140625 0.53125,0 0.9375,-0.15625 1.21875,-0.46875 0.4375,-0.5 0.65625,-1.078125 0.65625,-1.734375 0,-1.4375 -1.35938,-2.15625 -4.07813,-2.15625 -1.125,0 -2.625,0.03125 -4.5,0.09375 -0.53125,0.03125 -1.0625,0.04687 -1.59374,0.04687 2.6875,-4.875 4.82812,-8.515625 6.42187,-10.921875 1.71875,-2.46875 2.64062,-4.203125 2.76563,-5.203125 0.15624,-1.0625 -0.26563,-1.59375 -1.26563,-1.59375 z m -13.96875,21.375 -0.46875,0.984375 c -1.78125,3.375 -3.39063,6.59375 -4.82813,9.65625 -1.999997,0 -4.671869,0.01563 -8.015619,0.04687 h -2.578125 -1.5 l 0.46875,-1.03125 0.703125,-1.5 c 2.3125,-4.65625 3.59375,-7.21875 3.84375,-7.6875 l 1.5,-0.04687 c 4.624999,-0.1875 7.796869,-0.3125 9.515619,-0.375 z" />
    </g>
  </g>
</svg>
